<svg width="69" height="72" viewBox="0 0 69 72" fill="none" xmlns="http://www.w3.org/2000/svg">
<rect x="0.5" y="0.5" width="68" height="71" rx="13.5" fill="#0386D0"/>
<rect x="0.5" y="0.5" width="68" height="71" rx="13.5" stroke="white"/>
<g clip-path="url(#clip0_2_55)">
<path d="M53.9333 19.438C53.5185 19.438 53.106 19.286 52.776 18.9725C47.7183 14.194 41.2283 11.5625 34.4999 11.5625C27.7716 11.5625 21.2816 14.194 16.2239 18.9749C15.5203 19.6375 14.4341 19.5829 13.7947 18.8585C13.1553 18.1318 13.2058 17.0036 13.907 16.341C19.6018 10.9616 26.9145 8 34.4999 8C42.0853 8 49.3981 10.9616 55.0928 16.341C55.7941 17.0036 55.8445 18.1294 55.2051 18.8585C54.866 19.2432 54.4008 19.438 53.9333 19.438Z" fill="white"/>
<path d="M56.8437 31.0779C56.2914 31.0779 55.746 30.8024 55.416 30.2894C50.6448 22.9269 42.8256 18.5308 34.5 18.5308C26.1743 18.5308 18.3552 22.9269 13.5839 30.2894C13.0545 31.1088 11.9843 31.3273 11.1983 30.7763C10.41 30.2276 10.1991 29.1209 10.7285 28.3039C16.1391 19.9558 25.0262 14.9706 34.5 14.9706C43.9737 14.9706 52.8608 19.9558 58.2714 28.3063C58.8008 29.1233 58.5923 30.23 57.8016 30.7786C57.5083 30.9805 57.176 31.0779 56.8437 31.0779Z" fill="white"/>
<path d="M29.071 65C28.6287 65 28.1864 64.8243 27.8495 64.4728C27.4737 64.0809 18.6668 54.7638 18.6668 45.7934C18.6668 36.4834 25.7687 28.9095 34.4999 28.9095C43.2312 28.9095 50.3331 36.4834 50.3331 45.7934C50.3331 46.7766 49.5631 47.5746 48.6143 47.5746C47.6656 47.5746 46.8956 46.7766 46.8956 45.7934C46.8956 38.4475 41.336 32.472 34.4999 32.472C27.6639 32.472 22.1043 38.4475 22.1043 45.7934C22.1043 53.315 30.2099 61.8793 30.2924 61.9648C30.9616 62.663 30.957 63.7911 30.281 64.4846C29.9464 64.829 29.5087 65 29.071 65Z" fill="white"/>
<path d="M39.929 65C35.7948 65 26.2111 56.849 25.283 47.7718C24.9552 44.5631 25.9407 41.2809 27.9161 38.9914C29.6348 37.0011 31.9563 35.8968 34.4519 35.8825H34.5C36.9338 35.8825 39.2346 36.8729 40.9855 38.6755C42.8142 40.5589 43.8202 43.0883 43.8202 45.7958V46.9571C43.8202 49.819 45.9698 52.1465 48.6144 52.1465C51.259 52.1465 53.4109 49.819 53.4109 46.9571V46.551C53.4109 35.4598 45.6582 26.2329 35.7605 25.5489C30.5996 25.1855 25.6496 27.0333 21.8294 30.7335C17.8648 34.5763 15.5915 40.0673 15.5915 45.7958C15.5915 50.5078 17.1315 55.0986 19.9273 58.7229C20.5186 59.4924 20.3994 60.611 19.6569 61.2261C18.9167 61.8413 17.835 61.7154 17.2392 60.9459C13.9598 56.6923 12.1517 51.3105 12.1517 45.7934C12.1517 39.0816 14.8238 32.643 19.4782 28.1305C23.9996 23.7463 29.8617 21.566 35.985 21.9912C47.6817 22.801 56.8461 33.5883 56.8461 46.5487V46.9548C56.8461 51.7808 53.1519 55.7066 48.6121 55.7066C44.0723 55.7066 40.3805 51.7808 40.3805 46.9548V45.7934C40.3805 44.0406 39.7342 42.4114 38.5609 41.2001C37.4609 40.0649 36.0194 39.4426 34.5 39.4426C34.4886 39.4426 34.4794 39.4426 34.468 39.4426C32.5315 39.4522 31.2275 40.4948 30.4759 41.3664C29.1352 42.9173 28.4707 45.1735 28.6975 47.3965C29.4561 54.8018 37.6671 61.4399 39.9267 61.4399C40.8755 61.4399 41.6455 62.2379 41.6455 63.2211C41.6455 64.2044 40.8777 65 39.929 65Z" fill="white"/>
<path d="M46.3066 61.5159C40.1558 61.5159 32.646 53.7259 32.646 44.632C32.646 43.6488 33.416 42.8508 34.3647 42.8508C35.3135 42.8508 36.0835 43.6488 36.0835 44.632C36.0835 51.681 41.8012 57.9534 46.3066 57.9534C47.2554 57.9534 48.0253 58.7514 48.0253 59.7346C48.0253 60.7179 47.2554 61.5159 46.3066 61.5159Z" fill="white"/>
</g>
<defs>
<clipPath id="clip0_2_55">
<rect width="55" height="57" fill="white" transform="translate(7 8)"/>
</clipPath>
</defs>
</svg>
